<?xml version="1.0" encoding="utf-8"?>
<!-- Generator: Adobe Illustrator 23.1.0, SVG Export Plug-In . SVG Version: 6.00 Build 0)  -->
<svg version="1.1" id="Слой_1" xmlns="http://www.w3.org/2000/svg" xmlns:xlink="http://www.w3.org/1999/xlink" x="0px" y="0px"
	 viewBox="0 0 100 100" style="enable-background:new 0 0 100 100;" xml:space="preserve">
<style type="text/css">
	.st0{fill:#FFFFFF;stroke:#000000;stroke-width:10;stroke-miterlimit:10;}
	.st1{fill:#ED1C24;stroke:#FFFFFF;stroke-width:4;stroke-miterlimit:10;}
	.st2{fill:none;stroke:#FFFFFF;stroke-width:4.08;stroke-miterlimit:10;}
	.st3{fill:none;stroke:#FFFFFF;stroke-width:4;stroke-miterlimit:10;}
</style>
<circle class="st0" cx="50" cy="50" r="36.38"/>
<ellipse class="st1" cx="34.23" cy="70.23" rx="20.23" ry="18.77"/>
<path class="st1" d="M52.36,78.89c0.49,0.18,4.03-10.71,4.03-10.71c3.22-9.9,8.03-24.38,14.96-44.15c1.02,2.22,3.21,7.74,2.11,14.77
	c-0.78,4.99-2.88,8.6-4.22,10.55c-0.53,0.42,1.72,10.71,2.11,10.55c4.27-1.83,6.83-4.22,8.44-6.33
	c8.29-10.86,4.18-31.29-10.55-50.63C62.91,21.23,56.58,39.51,50.25,57.8c1.71,1.99,3.56,4.8,4.22,8.44
	C55.66,72.84,52.3,78.87,52.36,78.89z"/>
<line class="st2" x1="71.33" y1="25.1" x2="75.15" y2="12.32"/>
<line class="st3" x1="24.02" y1="86.07" x2="37.59" y2="51.47"/>
</svg>
